<?xml version="1.0" standalone="no"?>
<!DOCTYPE svg PUBLIC "-//W3C//DTD SVG 20010904//EN" "http://www.w3.org/TR/2001/REC-SVG-20010904/DTD/svg10.dtd">
<svg version="1.0" xmlns="http://www.w3.org/2000/svg"
    width="512.000000pt" height="512.000000pt" viewBox="0 0 512.000000 512.000000"
    preserveAspectRatio="xMidYMid meet">
    <metadata> Created by potrace 1.16, written by Peter Selinger 2001-2019 </metadata>

    <!-- White rounded background -->
    <rect x="0" y="0" width="512" height="512" rx="128" ry="128" fill="#ffffff" />

    <g transform="translate(0.000000,512.000000) scale(0.100000,-0.100000)"
        fill="#000000" stroke="none">
        <path
            d="M1537 4479 c-336 -35 -642 -249 -796 -556 -52 -104 -87 -224 -100
-346 -14 -127 -15 -1907 -1 -2032 55 -485 427 -855 911 -905 133 -13 369 -13
424 1 61 15 111 71 120 133 9 57 -24 130 -72 162 -30 20 -49 22 -255 27 -253
5 -295 13 -428 79 -120 60 -238 178 -298 298 -77 157 -75 138 -80 759 l-3 553
78 -6 c212 -19 460 -89 662 -186 250 -121 435 -261 638 -485 99 -109 123 -125
188 -125 120 0 196 116 149 226 -25 58 -166 216 -287 322 -381 334 -815 525
-1305 574 l-124 12 5 296 c5 332 9 358 79 500 60 120 178 238 298 298 165 82
89 77 1220 77 1130 0 1054 5 1220 -77 119 -58 238 -177 298 -298 66 -134 73
-173 81 -450 6 -232 7 -247 28 -276 46 -65 158 -85 223 -41 67 44 75 71 78
267 6 299 -23 471 -109 643 -72 143 -192 284 -324 379 -130 93 -311 160 -486
178 -121 12 -1914 12 -2032 -1z" />
        <path
            d="M2862 3790 c-256 -67 -425 -290 -425 -560 1 -165 52 -290 167 -404
116 -116 250 -170 417 -169 160 1 283 54 399 172 87 88 123 149 150 257 36
141 23 268 -42 403 -117 245 -397 371 -666 301z m272 -344 c77 -45 126 -131
126 -220 0 -88 -81 -198 -166 -227 -143 -47 -293 39 -324 187 -17 83 6 154 73
219 29 28 68 56 87 62 57 20 152 9 204 -21z" />
        <path
            d="M3945 2569 c-27 -6 -88 -28 -135 -51 l-85 -40 -581 -581 c-550 -550
-583 -585 -605 -642 -21 -54 -23 -80 -27 -271 -3 -171 -1 -224 12 -275 29
-116 121 -219 233 -263 40 -16 82 -20 248 -24 117 -2 224 0 256 6 124 23 114
15 730 631 629 630 618 617 659 777 52 204 -4 417 -150 565 -116 118 -234 169
-400 175 -58 2 -127 -1 -155 -7z m220 -336 c143 -48 214 -225 147 -364 -15
-31 -175 -197 -559 -581 l-538 -538 -168 0 c-221 0 -207 -14 -207 207 l0 168
528 528 c290 291 540 538 556 549 67 49 156 60 241 31z" />
    </g>
</svg>